<svg xmlns="http://www.w3.org/2000/svg" viewBox="0 0 1200 520" width="1200" height="520" role="img" aria-labelledby="title desc">
  <title id="title">膜是动态二维平台</title>
  <desc id="desc">脂质双层提供边界，膜蛋白和糖链执行转运、识别与信号功能</desc>
  <defs>
    <marker id="arrow" markerWidth="10" markerHeight="10" refX="8" refY="3" orient="auto" markerUnits="strokeWidth">
      <path d="M0,0 L0,6 L9,3 z" fill="#0f766e"/>
    </marker>
    <linearGradient id="soft" x1="0" x2="1" y1="0" y2="1">
      <stop offset="0" stop-color="#eef7f4"/>
      <stop offset="1" stop-color="#fff8ef"/>
    </linearGradient>
  </defs>
  <rect width="100%" height="100%" fill="url(#soft)"/>
  <rect x="24" y="24" width="1152" height="472" rx="28" fill="rgba(255,255,255,0.72)" stroke="#d8ded2" stroke-width="2"/>
  <text x="60" y="78" text-anchor="start" font-size="34" font-weight="800" fill="#20231f" font-family="Inter, Segoe UI, Microsoft YaHei, sans-serif"><tspan x="60" dy="0">膜是动态二维平台</tspan></text>
  <text x="60" y="122" text-anchor="start" font-size="19" font-weight="500" fill="#687067" font-family="Inter, Segoe UI, Microsoft YaHei, sans-serif"><tspan x="60" dy="0">脂质双层提供边界，膜蛋白和糖链执行转运、识别与信号功能</tspan></text>
  <circle cx="130" cy="205" r="17" fill="#0f766e"/><line x1="123" y1="222" x2="112" y2="286" stroke="#6b8d87" stroke-width="5" stroke-linecap="round"/><line x1="137" y1="222" x2="148" y2="286" stroke="#6b8d87" stroke-width="5" stroke-linecap="round"/><circle cx="130" cy="340" r="17" fill="#0f766e"/><line x1="123" y1="323" x2="112" y2="260" stroke="#6b8d87" stroke-width="5" stroke-linecap="round"/><line x1="137" y1="323" x2="148" y2="260" stroke="#6b8d87" stroke-width="5" stroke-linecap="round"/><circle cx="184" cy="205" r="17" fill="#0f766e"/><line x1="177" y1="222" x2="166" y2="286" stroke="#6b8d87" stroke-width="5" stroke-linecap="round"/><line x1="191" y1="222" x2="202" y2="286" stroke="#6b8d87" stroke-width="5" stroke-linecap="round"/><circle cx="184" cy="340" r="17" fill="#0f766e"/><line x1="177" y1="323" x2="166" y2="260" stroke="#6b8d87" stroke-width="5" stroke-linecap="round"/><line x1="191" y1="323" x2="202" y2="260" stroke="#6b8d87" stroke-width="5" stroke-linecap="round"/><circle cx="238" cy="205" r="17" fill="#0f766e"/><line x1="231" y1="222" x2="220" y2="286" stroke="#6b8d87" stroke-width="5" stroke-linecap="round"/><line x1="245" y1="222" x2="256" y2="286" stroke="#6b8d87" stroke-width="5" stroke-linecap="round"/><circle cx="238" cy="340" r="17" fill="#0f766e"/><line x1="231" y1="323" x2="220" y2="260" stroke="#6b8d87" stroke-width="5" stroke-linecap="round"/><line x1="245" y1="323" x2="256" y2="260" stroke="#6b8d87" stroke-width="5" stroke-linecap="round"/><circle cx="292" cy="205" r="17" fill="#0f766e"/><line x1="285" y1="222" x2="274" y2="286" stroke="#6b8d87" stroke-width="5" stroke-linecap="round"/><line x1="299" y1="222" x2="310" y2="286" stroke="#6b8d87" stroke-width="5" stroke-linecap="round"/><circle cx="292" cy="340" r="17" fill="#0f766e"/><line x1="285" y1="323" x2="274" y2="260" stroke="#6b8d87" stroke-width="5" stroke-linecap="round"/><line x1="299" y1="323" x2="310" y2="260" stroke="#6b8d87" stroke-width="5" stroke-linecap="round"/><circle cx="346" cy="205" r="17" fill="#0f766e"/><line x1="339" y1="222" x2="328" y2="286" stroke="#6b8d87" stroke-width="5" stroke-linecap="round"/><line x1="353" y1="222" x2="364" y2="286" stroke="#6b8d87" stroke-width="5" stroke-linecap="round"/><circle cx="346" cy="340" r="17" fill="#0f766e"/><line x1="339" y1="323" x2="328" y2="260" stroke="#6b8d87" stroke-width="5" stroke-linecap="round"/><line x1="353" y1="323" x2="364" y2="260" stroke="#6b8d87" stroke-width="5" stroke-linecap="round"/><circle cx="400" cy="205" r="17" fill="#0f766e"/><line x1="393" y1="222" x2="382" y2="286" stroke="#6b8d87" stroke-width="5" stroke-linecap="round"/><line x1="407" y1="222" x2="418" y2="286" stroke="#6b8d87" stroke-width="5" stroke-linecap="round"/><circle cx="400" cy="340" r="17" fill="#0f766e"/><line x1="393" y1="323" x2="382" y2="260" stroke="#6b8d87" stroke-width="5" stroke-linecap="round"/><line x1="407" y1="323" x2="418" y2="260" stroke="#6b8d87" stroke-width="5" stroke-linecap="round"/><circle cx="454" cy="205" r="17" fill="#0f766e"/><line x1="447" y1="222" x2="436" y2="286" stroke="#6b8d87" stroke-width="5" stroke-linecap="round"/><line x1="461" y1="222" x2="472" y2="286" stroke="#6b8d87" stroke-width="5" stroke-linecap="round"/><circle cx="454" cy="340" r="17" fill="#0f766e"/><line x1="447" y1="323" x2="436" y2="260" stroke="#6b8d87" stroke-width="5" stroke-linecap="round"/><line x1="461" y1="323" x2="472" y2="260" stroke="#6b8d87" stroke-width="5" stroke-linecap="round"/><circle cx="508" cy="205" r="17" fill="#0f766e"/><line x1="501" y1="222" x2="490" y2="286" stroke="#6b8d87" stroke-width="5" stroke-linecap="round"/><line x1="515" y1="222" x2="526" y2="286" stroke="#6b8d87" stroke-width="5" stroke-linecap="round"/><circle cx="508" cy="340" r="17" fill="#0f766e"/><line x1="501" y1="323" x2="490" y2="260" stroke="#6b8d87" stroke-width="5" stroke-linecap="round"/><line x1="515" y1="323" x2="526" y2="260" stroke="#6b8d87" stroke-width="5" stroke-linecap="round"/><circle cx="562" cy="205" r="17" fill="#0f766e"/><line x1="555" y1="222" x2="544" y2="286" stroke="#6b8d87" stroke-width="5" stroke-linecap="round"/><line x1="569" y1="222" x2="580" y2="286" stroke="#6b8d87" stroke-width="5" stroke-linecap="round"/><circle cx="562" cy="340" r="17" fill="#0f766e"/><line x1="555" y1="323" x2="544" y2="260" stroke="#6b8d87" stroke-width="5" stroke-linecap="round"/><line x1="569" y1="323" x2="580" y2="260" stroke="#6b8d87" stroke-width="5" stroke-linecap="round"/><circle cx="616" cy="205" r="17" fill="#0f766e"/><line x1="609" y1="222" x2="598" y2="286" stroke="#6b8d87" stroke-width="5" stroke-linecap="round"/><line x1="623" y1="222" x2="634" y2="286" stroke="#6b8d87" stroke-width="5" stroke-linecap="round"/><circle cx="616" cy="340" r="17" fill="#0f766e"/><line x1="609" y1="323" x2="598" y2="260" stroke="#6b8d87" stroke-width="5" stroke-linecap="round"/><line x1="623" y1="323" x2="634" y2="260" stroke="#6b8d87" stroke-width="5" stroke-linecap="round"/><circle cx="670" cy="205" r="17" fill="#0f766e"/><line x1="663" y1="222" x2="652" y2="286" stroke="#6b8d87" stroke-width="5" stroke-linecap="round"/><line x1="677" y1="222" x2="688" y2="286" stroke="#6b8d87" stroke-width="5" stroke-linecap="round"/><circle cx="670" cy="340" r="17" fill="#0f766e"/><line x1="663" y1="323" x2="652" y2="260" stroke="#6b8d87" stroke-width="5" stroke-linecap="round"/><line x1="677" y1="323" x2="688" y2="260" stroke="#6b8d87" stroke-width="5" stroke-linecap="round"/><circle cx="724" cy="205" r="17" fill="#0f766e"/><line x1="717" y1="222" x2="706" y2="286" stroke="#6b8d87" stroke-width="5" stroke-linecap="round"/><line x1="731" y1="222" x2="742" y2="286" stroke="#6b8d87" stroke-width="5" stroke-linecap="round"/><circle cx="724" cy="340" r="17" fill="#0f766e"/><line x1="717" y1="323" x2="706" y2="260" stroke="#6b8d87" stroke-width="5" stroke-linecap="round"/><line x1="731" y1="323" x2="742" y2="260" stroke="#6b8d87" stroke-width="5" stroke-linecap="round"/><circle cx="778" cy="205" r="17" fill="#0f766e"/><line x1="771" y1="222" x2="760" y2="286" stroke="#6b8d87" stroke-width="5" stroke-linecap="round"/><line x1="785" y1="222" x2="796" y2="286" stroke="#6b8d87" stroke-width="5" stroke-linecap="round"/><circle cx="778" cy="340" r="17" fill="#0f766e"/><line x1="771" y1="323" x2="760" y2="260" stroke="#6b8d87" stroke-width="5" stroke-linecap="round"/><line x1="785" y1="323" x2="796" y2="260" stroke="#6b8d87" stroke-width="5" stroke-linecap="round"/><circle cx="832" cy="205" r="17" fill="#0f766e"/><line x1="825" y1="222" x2="814" y2="286" stroke="#6b8d87" stroke-width="5" stroke-linecap="round"/><line x1="839" y1="222" x2="850" y2="286" stroke="#6b8d87" stroke-width="5" stroke-linecap="round"/><circle cx="832" cy="340" r="17" fill="#0f766e"/><line x1="825" y1="323" x2="814" y2="260" stroke="#6b8d87" stroke-width="5" stroke-linecap="round"/><line x1="839" y1="323" x2="850" y2="260" stroke="#6b8d87" stroke-width="5" stroke-linecap="round"/><circle cx="886" cy="205" r="17" fill="#0f766e"/><line x1="879" y1="222" x2="868" y2="286" stroke="#6b8d87" stroke-width="5" stroke-linecap="round"/><line x1="893" y1="222" x2="904" y2="286" stroke="#6b8d87" stroke-width="5" stroke-linecap="round"/><circle cx="886" cy="340" r="17" fill="#0f766e"/><line x1="879" y1="323" x2="868" y2="260" stroke="#6b8d87" stroke-width="5" stroke-linecap="round"/><line x1="893" y1="323" x2="904" y2="260" stroke="#6b8d87" stroke-width="5" stroke-linecap="round"/><circle cx="940" cy="205" r="17" fill="#0f766e"/><line x1="933" y1="222" x2="922" y2="286" stroke="#6b8d87" stroke-width="5" stroke-linecap="round"/><line x1="947" y1="222" x2="958" y2="286" stroke="#6b8d87" stroke-width="5" stroke-linecap="round"/><circle cx="940" cy="340" r="17" fill="#0f766e"/><line x1="933" y1="323" x2="922" y2="260" stroke="#6b8d87" stroke-width="5" stroke-linecap="round"/><line x1="947" y1="323" x2="958" y2="260" stroke="#6b8d87" stroke-width="5" stroke-linecap="round"/><circle cx="994" cy="205" r="17" fill="#0f766e"/><line x1="987" y1="222" x2="976" y2="286" stroke="#6b8d87" stroke-width="5" stroke-linecap="round"/><line x1="1001" y1="222" x2="1012" y2="286" stroke="#6b8d87" stroke-width="5" stroke-linecap="round"/><circle cx="994" cy="340" r="17" fill="#0f766e"/><line x1="987" y1="323" x2="976" y2="260" stroke="#6b8d87" stroke-width="5" stroke-linecap="round"/><line x1="1001" y1="323" x2="1012" y2="260" stroke="#6b8d87" stroke-width="5" stroke-linecap="round"/><circle cx="1048" cy="205" r="17" fill="#0f766e"/><line x1="1041" y1="222" x2="1030" y2="286" stroke="#6b8d87" stroke-width="5" stroke-linecap="round"/><line x1="1055" y1="222" x2="1066" y2="286" stroke="#6b8d87" stroke-width="5" stroke-linecap="round"/><circle cx="1048" cy="340" r="17" fill="#0f766e"/><line x1="1041" y1="323" x2="1030" y2="260" stroke="#6b8d87" stroke-width="5" stroke-linecap="round"/><line x1="1055" y1="323" x2="1066" y2="260" stroke="#6b8d87" stroke-width="5" stroke-linecap="round"/><rect x="468" y="174" width="82" height="205" rx="34" fill="#9a3412"/><rect x="650" y="222" width="96" height="104" rx="24" fill="#395b87"/><path d="M782 205 C850 156, 925 158, 988 205" fill="none" stroke="#9a3412" stroke-width="6"/><circle cx="1000" cy="204" r="12" fill="#9a3412"/><text x="82" y="206" text-anchor="start" font-size="22" font-weight="700" fill="#687067" font-family="Inter, Segoe UI, Microsoft YaHei, sans-serif"><tspan x="82" dy="0">外侧</tspan></text><text x="82" y="348" text-anchor="start" font-size="22" font-weight="700" fill="#687067" font-family="Inter, Segoe UI, Microsoft YaHei, sans-serif"><tspan x="82" dy="0">胞质侧</tspan></text><text x="510" y="414" text-anchor="middle" font-size="22" font-weight="700" fill="#9a3412" font-family="Inter, Segoe UI, Microsoft YaHei, sans-serif"><tspan x="510" dy="0">跨膜蛋白</tspan></text><text x="698" y="414" text-anchor="middle" font-size="22" font-weight="700" fill="#395b87" font-family="Inter, Segoe UI, Microsoft YaHei, sans-serif"><tspan x="698" dy="0">脂质筏/微域</tspan></text><text x="900" y="156" text-anchor="middle" font-size="22" font-weight="700" fill="#9a3412" font-family="Inter, Segoe UI, Microsoft YaHei, sans-serif"><tspan x="900" dy="0">糖链识别</tspan></text>
</svg>