<svg xmlns="http://www.w3.org/2000/svg" viewBox="0 0 1200 520" width="1200" height="520" role="img" aria-labelledby="title desc">
  <title id="title">细胞通讯不是单线，而是网络</title>
  <desc id="desc">受体、第二信使、磷酸化、小G蛋白和反馈共同决定输出</desc>
  <defs>
    <marker id="arrow" markerWidth="10" markerHeight="10" refX="8" refY="3" orient="auto" markerUnits="strokeWidth">
      <path d="M0,0 L0,6 L9,3 z" fill="#0f766e"/>
    </marker>
    <linearGradient id="soft" x1="0" x2="1" y1="0" y2="1">
      <stop offset="0" stop-color="#eef7f4"/>
      <stop offset="1" stop-color="#fff8ef"/>
    </linearGradient>
  </defs>
  <rect width="100%" height="100%" fill="url(#soft)"/>
  <rect x="24" y="24" width="1152" height="472" rx="28" fill="rgba(255,255,255,0.72)" stroke="#d8ded2" stroke-width="2"/>
  <text x="60" y="78" text-anchor="start" font-size="34" font-weight="800" fill="#20231f" font-family="Inter, Segoe UI, Microsoft YaHei, sans-serif"><tspan x="60" dy="0">细胞通讯不是单线，而是网络</tspan></text>
  <text x="60" y="122" text-anchor="start" font-size="19" font-weight="500" fill="#687067" font-family="Inter, Segoe UI, Microsoft YaHei, sans-serif"><tspan x="60" dy="0">受体、第二信使、磷酸化、小G蛋白和反馈共同决定输出</tspan></text>
  <rect x="80" y="205" width="160" height="96" rx="18" fill="#fff3df" stroke="#9a3412" stroke-width="3"/>
<text x="160" y="261" text-anchor="middle" font-size="24" font-weight="700" fill="#20231f" font-family="Inter, Segoe UI, Microsoft YaHei, sans-serif"><tspan x="160" dy="0">信号分子</tspan></text><rect x="310" y="205" width="170" height="96" rx="18" fill="#e7f4ef" stroke="#0f766e" stroke-width="3"/>
<text x="395" y="261" text-anchor="middle" font-size="24" font-weight="700" fill="#20231f" font-family="Inter, Segoe UI, Microsoft YaHei, sans-serif"><tspan x="395" dy="0">受体激活</tspan></text><rect x="550" y="150" width="170" height="92" rx="18" fill="#e9eef8" stroke="#395b87" stroke-width="3"/>
<text x="635" y="204" text-anchor="middle" font-size="24" font-weight="700" fill="#20231f" font-family="Inter, Segoe UI, Microsoft YaHei, sans-serif"><tspan x="635" dy="0">第二信使</tspan></text><rect x="550" y="280" width="170" height="92" rx="18" fill="#f3ebe5" stroke="#9a3412" stroke-width="3"/>
<text x="635" y="317" text-anchor="middle" font-size="24" font-weight="700" fill="#20231f" font-family="Inter, Segoe UI, Microsoft YaHei, sans-serif"><tspan x="635" dy="0">激酶/GTPas</tspan><tspan x="635" dy="34">e</tspan></text><rect x="800" y="205" width="170" height="96" rx="18" fill="#eaf2dc" stroke="#0f766e" stroke-width="3"/>
<text x="885" y="261" text-anchor="middle" font-size="24" font-weight="700" fill="#20231f" font-family="Inter, Segoe UI, Microsoft YaHei, sans-serif"><tspan x="885" dy="0">细胞响应</tspan></text><line x1="244" y1="253" x2="302" y2="253" stroke="#0f766e" stroke-width="5" stroke-linecap="round" marker-end="url(#arrow)"/><line x1="485" y1="242" x2="540" y2="200" stroke="#0f766e" stroke-width="5" stroke-linecap="round" marker-end="url(#arrow)"/><line x1="485" y1="266" x2="540" y2="326" stroke="#0f766e" stroke-width="5" stroke-linecap="round" marker-end="url(#arrow)"/><line x1="728" y1="198" x2="790" y2="240" stroke="#0f766e" stroke-width="5" stroke-linecap="round" marker-end="url(#arrow)"/><line x1="728" y1="328" x2="790" y2="266" stroke="#0f766e" stroke-width="5" stroke-linecap="round" marker-end="url(#arrow)"/><path d="M880 314 C790 430, 406 430, 390 314" fill="none" stroke="#9a3412" stroke-width="5" stroke-linecap="round" marker-end="url(#arrow)"/><text x="615" y="438" text-anchor="middle" font-size="22" font-weight="700" fill="#9a3412" font-family="Inter, Segoe UI, Microsoft YaHei, sans-serif"><tspan x="615" dy="0">负反馈/脱敏</tspan></text>
</svg>